<svg xmlns="http://www.w3.org/2000/svg" viewBox="0 0 16 16" width="512" height="512">
  <rect width="16" height="16" rx="2" fill="#0c0c1a"/>
  <rect x="4" y="2" width="2" height="2" fill="#a855f7"/>
  <rect x="10" y="2" width="2" height="2" fill="#a855f7"/>
  <rect x="3" y="4" width="2" height="2" fill="#c084fc"/>
  <rect x="5" y="4" width="2" height="2" fill="#a855f7"/>
  <rect x="7" y="4" width="2" height="2" fill="#7c3aed"/>
  <rect x="9" y="4" width="2" height="2" fill="#a855f7"/>
  <rect x="11" y="4" width="2" height="2" fill="#c084fc"/>
  <rect x="4" y="6" width="2" height="2" fill="#7c3aed"/>
  <rect x="6" y="6" width="2" height="2" fill="#6d28d9"/>
  <rect x="8" y="6" width="2" height="2" fill="#7c3aed"/>
  <rect x="10" y="6" width="2" height="2" fill="#7c3aed"/>
  <rect x="5" y="8" width="2" height="2" fill="#a855f7"/>
  <rect x="7" y="8" width="2" height="2" fill="#c084fc"/>
  <rect x="9" y="8" width="2" height="2" fill="#a855f7"/>
  <rect x="3" y="10" width="2" height="2" fill="#6d28d9"/>
  <rect x="5" y="10" width="2" height="2" fill="#7c3aed"/>
  <rect x="9" y="10" width="2" height="2" fill="#7c3aed"/>
  <rect x="11" y="10" width="2" height="2" fill="#6d28d9"/>
  <rect x="2" y="12" width="2" height="2" fill="#a855f7"/>
  <rect x="6" y="12" width="2" height="2" fill="#c084fc"/>
  <rect x="8" y="12" width="2" height="2" fill="#c084fc"/>
  <rect x="12" y="12" width="2" height="2" fill="#a855f7"/>
</svg>